<mxfile host="65bd71144e">
    <diagram id="jK-o0WApMAdQ0l7wVcRw" name="Page-1">
        <mxGraphModel dx="1049" dy="583" grid="1" gridSize="10" guides="1" tooltips="1" connect="1" arrows="1" fold="1" page="1" pageScale="1" pageWidth="850" pageHeight="1100" math="0" shadow="0">
            <root>
                <mxCell id="0"/>
                <mxCell id="1" parent="0"/>
                <mxCell id="8" value="" style="edgeStyle=none;html=1;" edge="1" parent="1" source="2" target="7">
                    <mxGeometry relative="1" as="geometry"/>
                </mxCell>
                <mxCell id="12" value="" style="edgeStyle=none;html=1;shape=flexArrow;" edge="1" parent="1" source="2" target="11">
                    <mxGeometry relative="1" as="geometry"/>
                </mxCell>
                <mxCell id="17" value="" style="edgeStyle=none;shape=flexArrow;html=1;" edge="1" parent="1" source="2" target="14">
                    <mxGeometry relative="1" as="geometry"/>
                </mxCell>
                <mxCell id="2" value="&quot;BPA_CustomActor&quot;" style="rounded=0;whiteSpace=wrap;html=1;" vertex="1" parent="1">
                    <mxGeometry x="230" y="210" width="120" height="60" as="geometry"/>
                </mxCell>
                <mxCell id="5" value="" style="edgeStyle=none;html=1;shape=arrow;" edge="1" parent="1" source="3" target="2">
                    <mxGeometry relative="1" as="geometry"/>
                </mxCell>
                <mxCell id="3" value="BlueprintEditorUtility" style="rounded=0;whiteSpace=wrap;html=1;" vertex="1" parent="1">
                    <mxGeometry x="10" y="210" width="120" height="60" as="geometry"/>
                </mxCell>
                <mxCell id="6" value="Creates" style="text;html=1;strokeColor=none;fillColor=none;align=center;verticalAlign=middle;whiteSpace=wrap;rounded=0;" vertex="1" parent="1">
                    <mxGeometry x="140" y="200" width="60" height="30" as="geometry"/>
                </mxCell>
                <mxCell id="10" value="" style="edgeStyle=none;html=1;dashed=1;" edge="1" parent="1" source="7" target="9">
                    <mxGeometry relative="1" as="geometry"/>
                </mxCell>
                <mxCell id="7" value="UBlueprint&lt;br&gt;&lt;br&gt;ParentClass = ACustomClass" style="rounded=0;whiteSpace=wrap;html=1;" vertex="1" parent="1">
                    <mxGeometry x="230" y="100" width="120" height="60" as="geometry"/>
                </mxCell>
                <mxCell id="9" value="ACustomClass : Public AActor" style="rounded=0;whiteSpace=wrap;html=1;" vertex="1" parent="1">
                    <mxGeometry x="455" y="100" width="180" height="60" as="geometry"/>
                </mxCell>
                <mxCell id="11" value="&quot;BPA_CustomActor.uasset&quot;" style="rounded=0;whiteSpace=wrap;html=1;" vertex="1" parent="1">
                    <mxGeometry x="455" y="210" width="160" height="60" as="geometry"/>
                </mxCell>
                <mxCell id="13" value="UObject Serialized to" style="text;html=1;strokeColor=none;fillColor=none;align=center;verticalAlign=middle;whiteSpace=wrap;rounded=0;" vertex="1" parent="1">
                    <mxGeometry x="360" y="190" width="80" height="30" as="geometry"/>
                </mxCell>
                <mxCell id="21" value="" style="edgeStyle=none;shape=flexArrow;html=1;" edge="1" parent="1" source="14" target="20">
                    <mxGeometry relative="1" as="geometry"/>
                </mxCell>
                <mxCell id="14" value="Blueprint Editor&lt;br&gt;&lt;br&gt;+ Properties&lt;br&gt;+ Functions&lt;br&gt;+ Events" style="rounded=1;whiteSpace=wrap;html=1;" vertex="1" parent="1">
                    <mxGeometry x="152.5" y="340" width="275" height="110" as="geometry"/>
                </mxCell>
                <mxCell id="19" value="Edited By" style="text;html=1;strokeColor=none;fillColor=none;align=center;verticalAlign=middle;whiteSpace=wrap;rounded=0;" vertex="1" parent="1">
                    <mxGeometry x="300" y="280" width="60" height="30" as="geometry"/>
                </mxCell>
                <mxCell id="24" value="" style="edgeStyle=none;shape=flexArrow;html=1;" edge="1" parent="1" source="20">
                    <mxGeometry relative="1" as="geometry">
                        <mxPoint x="288.75" y="600" as="targetPoint"/>
                    </mxGeometry>
                </mxCell>
                <mxCell id="20" value="FKismetCompilerContext" style="rounded=1;whiteSpace=wrap;html=1;" vertex="1" parent="1">
                    <mxGeometry x="190" y="510" width="197.5" height="30" as="geometry"/>
                </mxCell>
                <mxCell id="22" value="Compiled By" style="text;html=1;strokeColor=none;fillColor=none;align=center;verticalAlign=middle;whiteSpace=wrap;rounded=0;" vertex="1" parent="1">
                    <mxGeometry x="300" y="460" width="80" height="30" as="geometry"/>
                </mxCell>
                <mxCell id="23" value="UBlueprintGeneratedClass&lt;br&gt;&quot;BPC_CustomActor_C&quot;" style="rounded=1;whiteSpace=wrap;html=1;" vertex="1" parent="1">
                    <mxGeometry x="190" y="600" width="197.5" height="50" as="geometry"/>
                </mxCell>
                <mxCell id="25" value="Clean up, reuse and produce" style="text;html=1;strokeColor=none;fillColor=none;align=center;verticalAlign=middle;whiteSpace=wrap;rounded=0;" vertex="1" parent="1">
                    <mxGeometry x="300" y="550" width="110" height="30" as="geometry"/>
                </mxCell>
            </root>
        </mxGraphModel>
    </diagram>
</mxfile>